<?xml version="1.0"?><svg width="640" height="480" xmlns="http://www.w3.org/2000/svg">
 <title>grey hops stencil</title>
 <g>
  <title>Layer 1</title>
  <g id="svg_1">
   <g id="svg_308">
    <g id="svg_309">
     <path fill="#bfbfbf" stroke="#FFFFFF" stroke-width="6" stroke-linecap="round" stroke-linejoin="round" d="m240.54985,195.906876c0,0 -22.009445,-13.629227 2.201721,-34.328323c24.203506,-20.691467 47.530869,-35.212051 47.530869,-35.212051l-6.155579,-8.36496c0,0 -48.407135,29.932541 -49.306015,31.242889c-0.876022,1.34082 -31.692459,18.497375 -31.692459,18.497375l12.326599,26.847031l25.094803,1.318039l0.000061,0z" id="svg_310"/>
     <g id="svg_311">
      <path fill="#bfbfbf" stroke="#FFFFFF" stroke-width="6" stroke-linecap="round" stroke-linejoin="round" d="m142.829163,141.252777c0,0 -8.433533,-3.115921 -19.533463,-1.767456c-11.092346,1.333206 -18.215508,1.767456 -21.308487,4.449127c-3.10836,2.651184 -23.54081,11.983673 -23.54081,11.983673s-5.32515,4.441498 -6.209038,7.085052c-0.89888,2.681686 -0.89888,9.766754 -0.89888,9.766754l33.741707,6.666046l37.74897,-38.183197z" id="svg_312"/>
      <path fill="#bfbfbf" stroke="#FFFFFF" stroke-width="6" stroke-linecap="round" stroke-linejoin="round" d="m57.160717,323.73526c0,0 -13.781612,9.33255 -15.571922,18.65744c-1.767464,9.32486 -3.542538,23.517853 -0.868496,26.626099c2.658806,3.131195 15.084343,6.673706 23.974976,0.899017c8.883003,-5.744232 2.216942,-23.967285 2.216942,-23.967285l-9.751499,-22.215271z" id="svg_313"/>
      <path fill="#bfbfbf" stroke="#FFFFFF" stroke-width="6" stroke-linecap="round" stroke-linejoin="round" d="m146.843979,360.585327c0,0 -6.208984,18.657349 -17.773727,20.432434c-11.54174,1.775146 -26.649017,4.441528 -28.858253,2.224579c-2.224655,-2.224579 -5.782349,-10.216187 -4.449127,-12.875122c1.333206,-2.651123 17.766006,-13.332123 21.76564,-16.42511c3.99202,-3.115814 11.976067,-12.433167 11.976067,-12.433167l17.339401,19.076385z" id="svg_314"/>
      <path fill="#bfbfbf" stroke="#FFFFFF" stroke-width="6" stroke-linecap="round" stroke-linejoin="round" d="m74.020149,299.33371c0,0 -12.433163,15.07666 -14.208244,24.40155c-1.790314,9.33255 -8.433521,39.965912 0,45.740692c8.425903,5.759491 23.540649,5.325226 26.633781,4.860596c3.100677,-0.426636 3.565399,-3.542694 14.208244,-6.635681c10.642914,-3.115967 28.858353,-26.207123 28.858353,-26.207123l-15.09198,-26.649017l-26.649094,-20.851471l-13.75106,5.340454z" id="svg_315"/>
      <path fill="#bfbfbf" stroke="#FFFFFF" stroke-width="6" stroke-linecap="round" stroke-linejoin="round" d="m30.945942,256.251892c0,0 -13.332127,12.875031 -18.200257,22.657013c-4.890912,9.766724 -6.208964,30.191559 -4.449123,31.943817c1.782698,1.790283 13.766376,-2.651154 18.215423,-7.542297c4.433958,-4.868042 11.991369,-35.524323 11.991369,-35.524323l-7.557411,-11.53421z" id="svg_316"/>
      <path fill="#bfbfbf" stroke="#FFFFFF" stroke-width="6" stroke-linecap="round" stroke-linejoin="round" d="m31.372496,271.778137c0,0 -18.626811,37.741241 -15.952845,53.298035c2.651188,15.526215 2.651188,18.192627 2.651188,18.192627l15.526218,8.882996c0,0 10.650543,-3.100647 16.01379,-4.875732c5.317772,-1.790314 31.075279,-48.841217 31.075279,-48.841217l2.674042,-7.549957l-51.9876,-19.10675l-0.000072,0z" id="svg_317"/>
      <path fill="#bfbfbf" stroke="#FFFFFF" stroke-width="6" stroke-linecap="round" stroke-linejoin="round" d="m42.038277,217.177338c0,0 -37.543277,35.32634 -3.534924,65.266571c18.657364,16.425079 41.733372,10.650391 41.733372,10.650391l1.759842,-53.282806l-39.95829,-22.634155z" id="svg_318"/>
      <path fill="#bfbfbf" stroke="#FFFFFF" stroke-width="6" stroke-linecap="round" stroke-linejoin="round" d="m153.494797,300.667023c0,0 -7.549728,23.517792 -13.332138,29.726746c-5.76709,6.201355 -15.526283,12.875031 -24.409302,10.208618c-8.898232,-2.658813 -8.433449,-27.959381 -5.782173,-39.935364c2.681656,-11.999084 43.523613,0 43.523613,0z" id="svg_319"/>
      <path fill="#bfbfbf" stroke="#FFFFFF" stroke-width="6" stroke-linecap="round" stroke-linejoin="round" d="m112.65284,171.8862c0,0 -43.07428,-4.883377 -47.949951,-3.55777c-4.890984,1.34845 -24.881557,7.130783 -27.525131,26.207138c-2.673965,19.084 9.774284,30.199188 9.774284,30.199188s12.859863,13.309265 20.402039,13.751144c7.542091,0.449478 19.091606,-3.115921 19.091606,-3.115921l26.207153,-63.48378z" id="svg_320"/>
      <path fill="#bfbfbf" stroke="#FFFFFF" stroke-width="6" stroke-linecap="round" stroke-linejoin="round" d="m160.145599,285.567352c0,0 -27.96698,48.399506 -67.932808,19.960205c-39.935593,-28.408966 -27.509972,-50.608871 -12.859795,-77.242661c14.642487,-26.649002 25.315811,-22.641754 25.315811,-22.641754l60.809662,6.658447l5.774704,50.166885l-11.107574,23.098877z" id="svg_321"/>
      <path fill="#bfbfbf" stroke="#FFFFFF" stroke-width="6" stroke-linecap="round" stroke-linejoin="round" d="m252.068832,244.283463c0,0 2.651169,28.393631 -3.557861,38.167984c-6.208817,9.759186 -13.758774,18.223114 -28.873505,15.998505c-15.076736,-2.224548 0.90657,-64.832184 0.90657,-64.832184l31.524796,10.665695z" id="svg_322"/>
      <path fill="#bfbfbf" stroke="#FFFFFF" stroke-width="6" stroke-linecap="round" stroke-linejoin="round" d="m229.853683,246.919403c0,0 0.883728,43.973175 -6.681244,54.616089c-7.534546,10.673187 -32.385696,15.114746 -32.385696,15.114746l-3.535019,-52.406677l42.601959,-17.324158z" id="svg_323"/>
      <path fill="#bfbfbf" stroke="#FFFFFF" stroke-width="6" stroke-linecap="round" stroke-linejoin="round" d="m201.018188,277.545227c0,0 5.294678,38.63269 0.868515,48.407135c-4.441437,9.759033 -7.092697,16.43277 -20.42485,23.091156c-13.309265,6.666077 -20.866669,8.441132 -27.532745,8.882996c-6.666061,0.434326 -10.650391,2.224518 -14.650101,-0.441864c-3.992096,-2.666351 -11.991219,-13.347351 -10.208603,-24.432068c1.767456,-11.092316 25.75769,-49.724945 25.75769,-49.724945l46.190094,-5.78241z" id="svg_324"/>
      <path fill="#bfbfbf" stroke="#FFFFFF" stroke-width="6" stroke-linecap="round" stroke-linejoin="round" d="m227.187271,239.377228c0,0 -2.674072,21.323761 -15.549088,37.2995s-23.075943,19.983032 -31.951416,22.192261c-8.867767,2.224518 -31.075272,1.798035 -31.075272,1.798035s-7.984039,-43.081909 4.433884,-67.940613c12.425552,-24.851105 18.642044,-35.082535 18.642044,-35.082535l35.082703,2.666412l20.417145,39.06694z" id="svg_325"/>
      <path fill="#bfbfbf" stroke="#FFFFFF" stroke-width="6" stroke-linecap="round" stroke-linejoin="round" d="m165.920486,138.593964l-29.292664,-0.457108l-7.999115,5.340485l-7.976578,7.10791c0,0 -2.666359,-0.464706 -5.76696,1.317978c-3.116058,1.775085 -7.557487,2.651199 -10.658157,7.549805c-3.115837,4.890991 -7.123093,8.441132 -10.665771,13.773987s-11.092262,15.52623 -11.092262,15.52623l-2.674042,0c0,0 -8.006973,6.673676 -8.006973,8.441147c0,1.782684 -2.201553,10.66568 0.906662,12.875015c3.108292,2.224564 9.774353,8.867767 9.774353,8.867767s10.20105,11.564667 42.182854,10.231445c31.951408,-1.34082 48.384193,-19.099213 48.384193,-19.099213l11.557068,-12.440781l-18.672607,-59.034668z" id="svg_326"/>
      <path fill="#bfbfbf" stroke="#FFFFFF" stroke-width="6" stroke-linecap="round" stroke-linejoin="round" d="m226.753082,183.428009c0,0 37.748932,0 39.950684,29.300201c2.247406,29.315445 -13.324448,41.748611 -13.324448,41.748611l-36.842545,1.767441c0,0 -18.20018,-17.308884 -19.533386,-31.974228c-1.340897,-14.642487 2.232178,-37.269028 29.749695,-40.842026z" id="svg_327"/>
      <path fill="#bfbfbf" stroke="#FFFFFF" stroke-width="6" stroke-linecap="round" stroke-linejoin="round" d="m210.327835,168.32843c0,0 4.868027,-15.983337 3.093124,-21.742798c-1.782776,-5.767105 -7.976578,-14.215866 -17.301376,-21.323792c-9.340088,-7.085075 -19.541168,-10.185745 -25.292953,-9.759125c-5.790039,0.457108 -12.882721,0.89135 -12.882721,0.89135s-3.557693,17.7584 -3.115814,21.75042c0.434219,4.007248 27.517487,24.866318 27.517487,24.866318l27.982254,5.317627z" id="svg_328"/>
      <g id="svg_329">
       <path fill="#bfbfbf" stroke="#FFFFFF" stroke-width="6" stroke-linecap="round" stroke-linejoin="round" d="m213.420959,163.452682c0,0 -13.301727,-18.642136 -22.641769,-19.975342c-9.324875,-1.333221 -31.098145,0 -31.098145,0l-12.425522,15.541458c0,0 0.90657,19.982941 5.782318,26.62616c4.898682,6.658432 3.542526,16.448029 12.425537,16.882263c8.890625,0.426636 16.874588,4.441513 18.657364,4.891006c1.767456,0.457077 7.542114,2.216934 7.542114,2.216934l18.215561,0c0,0 4.86821,-0.891357 7.077454,-3.984406c2.232193,-3.115906 6.20134,-7.11554 6.20134,-11.549423c0,-4.449112 -0.411438,-7.991653 -1.744507,-13.781616c-1.340912,-5.759476 -5.325333,-8.875397 -5.325333,-8.875397l-2.666412,-7.991638z" id="svg_330"/>
       <line fill="#bfbfbf" stroke="#FFFFFF" stroke-width="6" stroke-linecap="round" stroke-linejoin="round" x1="216.10254" y1="185.644952" x2="215.63782" y2="167.010445" id="svg_331"/>
      </g>
     </g>
     <path fill="#bfbfbf" stroke="#FFFFFF" stroke-width="6" stroke-linecap="round" stroke-linejoin="round" d="m256.776978,146.501831c0,0 -3.65683,13.979675 -0.281891,25.216766c3.336853,11.229446 8.791595,20.958099 8.791595,20.958099s-23.373138,-19.74678 -22.756042,-24.6073c0.601837,-4.85289 0.601837,-13.6521 0.601837,-13.6521" id="svg_332"/>
    </g>
    <g id="svg_333">
     <path fill="#bfbfbf" stroke="#FFFFFF" stroke-width="6" stroke-linecap="round" stroke-linejoin="round" d="m301.885345,170.240631c0,0 25.536743,4.251038 20.980865,-27.266098c-4.555664,-31.517166 -12.509277,-57.823357 -12.509277,-57.823357l10.124908,-2.232178c0,0 16.668823,54.440788 16.447937,56.002571c-0.17511,1.584595 11.663635,34.808258 11.663635,34.808258l-26.945984,12.059952l-19.762085,-15.549149z" id="svg_334"/>
     <g id="svg_335">
      <path fill="#bfbfbf" stroke="#FFFFFF" stroke-width="6" stroke-linecap="round" stroke-linejoin="round" d="m252.106827,193.552811c0,0 -8.395432,3.222565 -15.869034,11.564651c-7.458298,8.304031 -12.53212,13.31691 -13.095993,17.347015c-0.578949,4.068222 -9.797104,24.538742 -9.797104,24.538742s-1.097122,6.856522 0.007538,9.431534c1.104645,2.613098 5.782349,7.953552 5.782349,7.953552l29.75737,-17.240341l3.214966,-53.595154l-0.000092,0z" id="svg_336"/>
      <path fill="#bfbfbf" stroke="#FFFFFF" stroke-width="6" stroke-linecap="round" stroke-linejoin="round" d="m307.979858,387.257202c0,0 -4.220581,16.112762 0.578918,24.279724c4.82251,8.174469 12.859894,20.013428 16.912781,20.615204c4.030182,0.586761 15.747162,-4.951874 18.588867,-15.137695c2.887268,-10.200958 -14.124359,-19.510468 -14.124359,-19.510468l-21.956207,-10.246765z" id="svg_337"/>
      <path fill="#bfbfbf" stroke="#FFFFFF" stroke-width="6" stroke-linecap="round" stroke-linejoin="round" d="m399.704987,355.85434c0,0 7.618347,18.108917 0.083832,27.060394c-7.49649,8.943878 -17.087921,20.904785 -20.234375,20.699188c-3.115906,-0.20578 -11.031372,-3.86261 -11.808502,-6.765137c-0.769409,-2.879791 4.571075,-21.71994 5.530884,-26.687164c0.921814,-4.974792 0.807648,-17.247925 0.807648,-17.247925l25.620514,2.940643z" id="svg_338"/>
      <path fill="#bfbfbf" stroke="#FFFFFF" stroke-width="6" stroke-linecap="round" stroke-linejoin="round" d="m304.536469,357.781799c0,0 0.609467,19.533447 5.424255,27.723236c4.81488,8.197296 20.005798,35.623383 30.138214,34.396942c10.155365,-1.241913 21.209442,-11.496124 23.235992,-13.903595c2.064575,-2.376953 0.335327,-4.990021 6.315643,-14.360596c5.965149,-9.355377 4.426239,-38.716522 4.426239,-38.716522l-28.919281,-10.086761l-33.795105,1.866547l-6.825958,13.08075z" id="svg_339"/>
      <path fill="#bfbfbf" stroke="#FFFFFF" stroke-width="6" stroke-linecap="round" stroke-linejoin="round" d="m243.764725,353.782074c0,0 -1.531296,18.459351 1.241791,29.026001c2.788254,10.56665 15.23671,26.793762 17.73555,26.968994c2.49881,0.160065 8.593597,-11.061859 8.723022,-17.674683c0.114258,-6.62027 -14.42157,-34.610168 -14.42157,-34.610168l-13.278793,-3.710144z" id="svg_340"/>
      <path fill="#bfbfbf" stroke="#FFFFFF" stroke-width="6" stroke-linecap="round" stroke-linejoin="round" d="m254.354401,365.17157c0,0 10.833252,40.6745 23.091248,50.608673c12.257935,9.926819 14.017761,11.915192 14.017761,11.915192l17.537476,-3.565369c0,0 5.950012,-9.347717 8.806915,-14.192932c2.811066,-4.852966 -8.845001,-57.213959 -8.845001,-57.213959l-2.971161,-7.435516l-51.637238,19.883911z" id="svg_341"/>
      <path fill="#bfbfbf" stroke="#FFFFFF" stroke-width="6" stroke-linecap="round" stroke-linejoin="round" d="m226.356842,317.084412c0,0 -4.959549,51.302124 40.346771,51.431641c24.873932,0.053345 38.419373,-19.51825 38.419373,-19.51825l-33.794952,-41.238098l-44.971191,9.324707z" id="svg_342"/>
      <path fill="#bfbfbf" stroke="#FFFFFF" stroke-width="6" stroke-linecap="round" stroke-linejoin="round" d="m365.178589,306.380798c0,0 9.842896,22.679749 9.599121,31.166595c-0.228546,8.46402 -3.199677,19.922028 -11.61792,23.776917c-8.441223,3.83963 -24.797821,-15.48822 -30.709686,-26.260559c-5.896576,-10.75705 32.728485,-28.682953 32.728485,-28.682953z" id="svg_343"/>
      <path fill="#bfbfbf" stroke="#FFFFFF" stroke-width="6" stroke-linecap="round" stroke-linejoin="round" d="m249.57753,236.497498c0,0 -35.585358,24.706329 -38.381363,28.934509c-2.803482,4.22821 -14.017715,21.750458 -3.44342,37.848053c10.589523,16.112793 27.235565,16.265259 27.235565,16.265259s18.482208,1.52359 24.455017,-3.115906c5.95752,-4.639679 12.296021,-14.91687 12.296021,-14.91687l-22.161819,-65.015045z" id="svg_344"/>
      <path fill="#bfbfbf" stroke="#FFFFFF" stroke-width="6" stroke-linecap="round" stroke-linejoin="round" d="m360.249512,290.648804c0,0 10.856171,54.821686 -37.916565,59.804108c-48.795593,4.974762 -54.075104,-19.914398 -60.611694,-49.580292c-6.536514,-29.703979 4.098724,-33.72644 4.098724,-33.72644l50.144012,-35.090179l37.413696,33.916931l6.871826,24.675873z" id="svg_345"/>
      <path fill="#bfbfbf" stroke="#FFFFFF" stroke-width="6" stroke-linecap="round" stroke-linejoin="round" d="m402.142792,199.022797c0,0 20.722015,19.602036 22.481689,31.029572c1.752319,11.450394 1.660889,22.771271 -11.176025,31.0448c-12.798798,8.288788 -42.045746,-49.313629 -42.045746,-49.313629l30.740173,-12.760742l-0.000092,0z" id="svg_346"/>
      <path fill="#bfbfbf" stroke="#FFFFFF" stroke-width="6" stroke-linecap="round" stroke-linejoin="round" d="m387.210876,215.646042c0,0 29.627716,32.469452 30.976257,45.451126c1.348419,12.996948 -14.421509,32.713257 -14.421509,32.713257l-37.223328,-37.048096l20.668579,-41.116287z" id="svg_347"/>
      <path fill="#bfbfbf" stroke="#FFFFFF" stroke-width="6" stroke-linecap="round" stroke-linejoin="round" d="m385.702454,257.699402c0,0 29.460083,25.536713 32.560944,35.813904c3.085449,10.277161 5.485046,17.042236 -0.129669,30.808655c-5.637543,13.796753 -10.155212,20.120148 -14.840546,24.850983c-4.723328,4.708313 -6.567047,8.669678 -11.328491,9.294495c-4.753815,0.632324 -17.811707,-2.102753 -23.776947,-11.595093c-5.995453,-9.53064 -13.400513,-54.387512 -13.400513,-54.387512l30.915283,-34.785431l-0.000061,0z" id="svg_348"/>
      <path fill="#bfbfbf" stroke="#FFFFFF" stroke-width="6" stroke-linecap="round" stroke-linejoin="round" d="m380.202026,211.722595c0,0 12.059845,17.788864 12.928284,38.289871c0.838043,20.508652 -4.212921,30.244888 -9.439087,37.756577c-5.2034,7.527039 -22.161835,21.826599 -22.161835,21.826599s-34.419739,-27.113708 -41.451385,-53.991302c-7.03186,-26.900421 -9.104034,-38.663162 -9.104034,-38.663162l28.126984,-21.140961l41.101074,15.922302l0,0.000076z" id="svg_349"/>
      <path fill="#bfbfbf" stroke="#FFFFFF" stroke-width="6" stroke-linecap="round" stroke-linejoin="round" d="m267.694061,176.320084l-22.329422,18.984955l-2.498795,9.27916l-1.310379,10.604752c0,0 -2.308273,1.424637 -3.473892,4.822418c-1.158035,3.367325 -3.923447,6.986038 -3.032166,12.707428c0.876114,5.698532 0.213303,11.0009 1.051315,17.347c0.838028,6.346069 1.896973,19.023041 1.896973,19.023041l-1.996063,1.744598c0,0 -1.622665,10.28479 -0.434189,11.625549c1.142776,1.333221 5.355789,9.461975 9.149567,9.088776c3.793961,-0.38092 13.187408,0.243774 13.187408,0.243774s15.297791,1.934998 38.45752,-20.142944c23.17514,-22.062744 23.799683,-46.251038 23.799683,-46.251038l0.48764,-16.950928l-52.9552,-32.126541z" id="svg_350"/>
      <path fill="#bfbfbf" stroke="#FFFFFF" stroke-width="6" stroke-linecap="round" stroke-linejoin="round" d="m342.993927,169.928284c0,0 28.386017,-24.866333 49.359406,-4.281525c21.01889,20.577194 17.506866,40.163986 17.506866,40.163986l-26.53476,25.643402c0,0 -25.117645,-1.036102 -35.76059,-11.183746c-10.680847,-10.124817 -22.923492,-29.498306 -4.570923,-50.342117z" id="svg_351"/>
      <path fill="#bfbfbf" stroke="#FFFFFF" stroke-width="6" stroke-linecap="round" stroke-linejoin="round" d="m320.710236,169.425461c0,0 -6.864136,-15.244339 -12.02179,-18.413559c-5.127045,-3.176865 -15.373779,-5.416656 -27.068024,-4.601501c-11.701721,0.799927 -21.415192,5.172867 -25.46817,9.332489c-4.045425,4.136703 -9.096313,9.157272 -9.096313,9.157272s9.042969,15.693817 11.998901,18.398331c2.97879,2.727371 37.101501,0.571381 37.101501,0.571381l24.553894,-14.444412z" id="svg_352"/>
      <g id="svg_353">
       <path fill="#bfbfbf" stroke="#FFFFFF" stroke-width="6" stroke-linecap="round" stroke-linejoin="round" d="m319.811249,163.696472c0,0 -22.306641,-5.241455 -30.206696,-0.091431c-7.877533,5.142395 -23.357971,20.493393 -23.357971,20.493393l0.898895,19.883896c0,0 13.84256,14.444412 21.895233,16.211884c8.067932,1.797928 13.499725,10.018143 20.47052,4.517685c6.978455,-5.538544 15.602417,-7.801208 17.240326,-8.639221c1.645599,-0.822784 7.146088,-3.321609 7.146088,-3.321609l13.697754,-11.998901c0,0 3.085449,-3.870148 2.712067,-7.664078c-0.380829,-3.809189 -0.030457,-9.454391 -2.948242,-12.791229c-2.925415,-3.336823 -5.599487,-5.713699 -10.421875,-9.149643c-4.784332,-3.489197 -9.850555,-3.176849 -9.850555,-3.176849l-7.275543,-4.273895z" id="svg_354"/>
       <line fill="#bfbfbf" stroke="#FFFFFF" stroke-width="6" stroke-linecap="round" stroke-linejoin="round" x1="336.457375" y1="178.64368" x2="323.826136" y2="164.915397" id="svg_355"/>
      </g>
     </g>
     <path fill="#bfbfbf" stroke="#FFFFFF" stroke-width="6" stroke-linecap="round" stroke-linejoin="round" d="m322.249054,122.389725c0,0 -6.460358,12.905487 -16.379486,19.160172c-9.911469,6.216568 -20.424805,9.941956 -20.424805,9.941956s30.587646,0.571381 33.330322,-3.504456c2.734985,-4.03772 8.55542,-10.665695 8.55542,-10.665695" id="svg_356"/>
    </g>
    <g id="svg_357">
     <path fill="#bfbfbf" stroke="#FFFFFF" stroke-width="6" stroke-linecap="round" stroke-linejoin="round" d="m399.240265,195.906876c0,0 22.009521,-13.629227 -2.20932,-34.328323c-24.218781,-20.691467 -47.538574,-35.212051 -47.538574,-35.212051l6.16333,-8.36496c0,0 48.422302,29.932541 49.321198,31.242889c0.86087,1.34082 31.661896,18.497375 31.661896,18.497375l-12.303558,26.847031l-25.094971,1.318039z" id="svg_358"/>
     <g id="svg_359">
      <path fill="#bfbfbf" stroke="#FFFFFF" stroke-width="6" stroke-linecap="round" stroke-linejoin="round" d="m496.953339,141.252777c0,0 8.425903,-3.115921 19.5336,-1.767456c11.084595,1.333206 18.200317,1.767456 21.300842,4.449127c3.108459,2.651184 23.548462,11.983673 23.548462,11.983673s5.325134,4.441498 6.208679,7.085052c0.891357,2.681686 0.891357,9.766754 0.891357,9.766754l-33.756714,6.666046l-37.726227,-38.183197z" id="svg_360"/>
      <path fill="#bfbfbf" stroke="#FFFFFF" stroke-width="6" stroke-linecap="round" stroke-linejoin="round" d="m582.621643,323.73526c0,0 13.804565,9.33255 15.572205,18.65744c1.767212,9.32486 3.550232,23.517853 0.875793,26.626099c-2.650879,3.131195 -15.099548,6.673706 -23.967285,0.899017c-8.875305,-5.744232 -2.231995,-23.967285 -2.231995,-23.967285l9.751282,-22.215271z" id="svg_361"/>
      <path fill="#bfbfbf" stroke="#FFFFFF" stroke-width="6" stroke-linecap="round" stroke-linejoin="round" d="m492.946075,360.585327c0,0 6.201385,18.657349 17.773621,20.432434c11.541901,1.775146 26.641449,4.441528 28.85849,2.224579c2.216858,-2.224579 5.759338,-10.216187 4.441406,-12.875122c-1.333191,-2.651123 -17.766113,-13.332123 -21.757996,-16.42511c-3.991943,-3.115814 -11.968536,-12.433167 -11.968536,-12.433167l-17.346985,19.076385z" id="svg_362"/>
      <path fill="#bfbfbf" stroke="#FFFFFF" stroke-width="6" stroke-linecap="round" stroke-linejoin="round" d="m565.76239,299.33371c0,0 12.433044,15.07666 14.230896,24.40155c1.744812,9.33255 8.410889,39.965912 0,45.740692c-8.456177,5.759491 -23.570862,5.325226 -26.648926,4.860596c-3.115845,-0.426636 -3.580627,-3.542694 -14.21582,-6.635681c-10.635193,-3.115967 -28.84317,-26.207123 -28.84317,-26.207123l15.084442,-26.649017l26.633789,-20.851471l13.758789,5.340454z" id="svg_363"/>
      <path fill="#bfbfbf" stroke="#FFFFFF" stroke-width="6" stroke-linecap="round" stroke-linejoin="round" d="m608.844177,256.251892c0,0 13.332153,12.875031 18.200317,22.657013c4.890869,9.766724 6.201294,30.191559 4.464417,31.943817c-1.813293,1.790283 -13.773987,-2.651154 -18.238525,-7.542297c-4.426208,-4.868042 -11.983582,-35.524323 -11.983582,-35.524323l7.557373,-11.53421z" id="svg_364"/>
      <path fill="#bfbfbf" stroke="#FFFFFF" stroke-width="6" stroke-linecap="round" stroke-linejoin="round" d="m608.409851,271.778137c0,0 18.626953,37.741241 15.953125,53.298035c-2.651428,15.526215 -2.651428,18.192627 -2.651428,18.192627l-15.518494,8.882996c0,0 -10.680786,-3.100647 -16.013733,-4.875732c-5.31781,-1.790314 -31.075378,-48.841217 -31.075378,-48.841217l-2.681519,-7.549957l51.987427,-19.10675z" id="svg_365"/>
      <path fill="#bfbfbf" stroke="#FFFFFF" stroke-width="6" stroke-linecap="round" stroke-linejoin="round" d="m597.744202,217.177338c0,0 37.550781,35.32634 3.542542,65.266571c-18.657227,16.425079 -41.725769,10.650391 -41.725769,10.650391l-1.767334,-53.282806l39.950562,-22.634155z" id="svg_366"/>
      <path fill="#bfbfbf" stroke="#FFFFFF" stroke-width="6" stroke-linecap="round" stroke-linejoin="round" d="m486.302948,300.667023c0,0 7.549683,23.517792 13.316895,29.726746c5.76709,6.201355 15.526276,12.875031 24.41684,10.208618c8.890808,-2.658813 8.426025,-27.959381 5.782349,-39.935364c-2.68158,-11.999084 -43.516083,0 -43.516083,0z" id="svg_367"/>
      <path fill="#bfbfbf" stroke="#FFFFFF" stroke-width="6" stroke-linecap="round" stroke-linejoin="round" d="m527.137451,171.8862c0,0 43.058777,-4.883377 47.972778,-3.55777c4.890747,1.34845 24.858704,7.130783 27.502136,26.207138c2.681824,19.084 -9.774292,30.199188 -9.774292,30.199188s-12.844543,13.309265 -20.401978,13.751144c-7.564941,0.449478 -19.091553,-3.115921 -19.091553,-3.115921l-26.207092,-63.48378z" id="svg_368"/>
      <path fill="#bfbfbf" stroke="#FFFFFF" stroke-width="6" stroke-linecap="round" stroke-linejoin="round" d="m479.644409,285.567352c0,0 27.959381,48.399506 67.925293,19.960205c39.943115,-28.408966 27.540527,-50.608871 12.86731,-77.242661c-14.634766,-26.649002 -25.315674,-22.641754 -25.315674,-22.641754l-60.802185,6.658447l-5.789948,50.166885l11.115204,23.098877z" id="svg_369"/>
      <path fill="#bfbfbf" stroke="#FFFFFF" stroke-width="6" stroke-linecap="round" stroke-linejoin="round" d="m387.721313,244.283463c0,0 -2.651184,28.393631 3.550262,38.167984c6.216492,9.759186 13.766266,18.223114 28.873474,15.998505c15.076752,-2.224548 -0.914185,-64.832184 -0.914185,-64.832184l-31.509552,10.665695z" id="svg_370"/>
      <path fill="#bfbfbf" stroke="#FFFFFF" stroke-width="6" stroke-linecap="round" stroke-linejoin="round" d="m409.928833,246.919403c0,0 -0.883759,43.973175 6.650818,54.616089c7.549805,10.673187 32.416138,15.114746 32.416138,15.114746l3.542542,-52.406677l-42.609497,-17.324158z" id="svg_371"/>
      <path fill="#bfbfbf" stroke="#FFFFFF" stroke-width="6" stroke-linecap="round" stroke-linejoin="round" d="m438.771881,277.545227c0,0 -5.310028,38.63269 -0.876129,48.407135c4.464355,9.759033 7.107941,16.43277 20.440063,23.091156c13.309387,6.666077 20.851471,8.441132 27.517517,8.882996c6.666077,0.434326 10.650574,2.224518 14.665314,-0.441864c3.992035,-2.666351 11.983795,-13.347351 10.208466,-24.432068c-1.775085,-11.092316 -25.757568,-49.724945 -25.757568,-49.724945l-46.197601,-5.78241l-0.000061,0z" id="svg_372"/>
      <path fill="#bfbfbf" stroke="#FFFFFF" stroke-width="6" stroke-linecap="round" stroke-linejoin="round" d="m412.580017,239.377228c0,0 2.68158,21.323761 15.549103,37.2995c12.875092,15.983337 23.091217,19.983032 31.958954,22.192261c8.867798,2.224518 31.082916,1.798035 31.082916,1.798035s7.976471,-43.081909 -4.433899,-67.940613c-12.425507,-24.851105 -18.657379,-35.082535 -18.657379,-35.082535l-35.07486,2.666412l-20.424835,39.06694z" id="svg_373"/>
      <path fill="#bfbfbf" stroke="#FFFFFF" stroke-width="6" stroke-linecap="round" stroke-linejoin="round" d="m473.869751,138.593964l29.292542,-0.457108l7.976593,5.340485l8.029633,7.10791c0,0 2.658752,-0.464706 5.744202,1.317978c3.115906,1.775085 7.557373,2.651199 10.665649,7.549805c3.100769,4.890991 7.115662,8.441132 10.650513,13.773987s11.099915,15.52623 11.099915,15.52623l2.674011,0c0,0 7.98407,6.673676 7.98407,8.441147c0,1.782684 2.217041,10.66568 -0.868408,12.875015c-3.115845,2.224564 -9.782166,8.867767 -9.782166,8.867767s-10.208496,11.564667 -42.1828,10.231445c-31.943665,-1.34082 -48.384094,-19.099213 -48.384094,-19.099213l-11.557037,-12.440781l18.657379,-59.034668z" id="svg_374"/>
      <path fill="#bfbfbf" stroke="#FFFFFF" stroke-width="6" stroke-linecap="round" stroke-linejoin="round" d="m413.021881,183.428009c0,0 -37.733734,0 -39.935455,29.300201c-2.247375,29.315445 13.301666,41.748611 13.301666,41.748611l36.850067,1.767441c0,0 18.215454,-17.308884 19.548676,-31.974228c1.310333,-14.642487 -2.232178,-37.269028 -29.764954,-40.842026z" id="svg_375"/>
      <path fill="#bfbfbf" stroke="#FFFFFF" stroke-width="6" stroke-linecap="round" stroke-linejoin="round" d="m429.462219,168.32843c0,0 -4.875732,-15.983337 -3.108246,-21.742798c1.775055,-5.767105 7.991516,-14.215866 17.316406,-21.323792c9.340271,-7.085075 19.518311,-10.185745 25.28537,-9.759125c5.797516,0.457108 12.88269,0.89135 12.88269,0.89135s3.55777,17.7584 3.115906,21.75042c-0.434296,4.007248 -27.525208,24.866318 -27.525208,24.866318l-27.966919,5.317627z" id="svg_376"/>
      <g id="svg_377">
       <path fill="#bfbfbf" stroke="#FFFFFF" stroke-width="6" stroke-linecap="round" stroke-linejoin="round" d="m426.354004,163.452682c0,0 13.316895,-18.642136 22.649384,-19.975342s31.098175,0 31.098175,0l12.417908,15.541458c0,0 -0.883728,19.982941 -5.774628,26.62616c-4.898712,6.658432 -3.542694,16.448029 -12.42569,16.882263c-8.898315,0.426636 -16.882172,4.441513 -18.657318,4.891006c-1.767548,0.457077 -7.542175,2.216934 -7.542175,2.216934l-18.215393,0c0,0 -4.875793,-0.891357 -7.085205,-3.984406c-2.232147,-3.115906 -6.23172,-7.11554 -6.23172,-11.549423c0,-4.449112 0.441864,-7.991653 1.782623,-13.781616c1.333221,-5.759476 5.325348,-8.875397 5.325348,-8.875397l2.658691,-7.991638z" id="svg_378"/>
       <line fill="#bfbfbf" stroke="#FFFFFF" stroke-width="6" stroke-linecap="round" stroke-linejoin="round" x1="423.695204" y1="185.644952" x2="424.137069" y2="167.010445" id="svg_379"/>
      </g>
     </g>
     <path fill="#bfbfbf" stroke="#FFFFFF" stroke-width="6" stroke-linecap="round" stroke-linejoin="round" d="m382.997864,146.501831c0,0 3.649109,13.979675 0.28949,25.216766c-3.336914,11.229446 -8.791534,20.958099 -8.791534,20.958099s23.373047,-19.74678 22.763611,-24.6073c-0.624725,-4.85289 -0.624725,-13.6521 -0.624725,-13.6521" id="svg_380"/>
    </g>
   </g>
  </g>
 </g>
</svg>